<svg width="127" height="8" viewBox="0 0 127 8" fill="none">
	<path class="shape-main" d="M70.0834 3.99524L63.3868 8L56.6997 3.99524L63.3868 0L70.0834 3.99524Z"></path>
	<path d="M94.0209 3.99532L89.8391 6.49711L85.6572 3.99532L89.8391 1.50305L94.0209 3.99532Z"></path>
	<path d="M83.8441 3.99532L79.6623 6.49711L75.4805 3.99532L79.6623 1.50305L83.8441 3.99532Z"></path>
	<path d="M51.3028 3.99532L47.121 6.49711L42.9392 3.99532L47.121 1.50305L51.3028 3.99532Z"></path>
	<path d="M41.1168 3.99532L36.935 6.49711L32.7532 3.99532L36.935 1.50305L41.1168 3.99532Z"></path>
	<path d="M28.5903 4.4614L0.363022 4.11895C0.297093 4.10944 0.25 4.06187 0.25 3.99529C0.25 3.9287 0.297093 3.88114 0.363022 3.88114L28.5903 3.52917C28.8446 3.52917 29.0518 3.72894 29.0612 3.99529C29.0612 4.25212 28.8634 4.4614 28.5997 4.47091C28.5997 4.4614 28.5903 4.4614 28.5903 4.4614Z"></path>
	<path d="M31.6891 3.9953C31.6891 4.38532 31.3783 4.69923 30.9921 4.69923C30.606 4.69923 30.2952 4.38532 30.2952 3.9953C30.2952 3.60529 30.606 3.29138 30.9921 3.29138C31.3783 3.29138 31.6891 3.60529 31.6891 3.9953Z"></path>
	<path d="M98.4194 3.52917L126.647 3.88113C126.713 3.88113 126.76 3.9382 126.76 3.99528C126.76 4.06186 126.703 4.10943 126.647 4.10943L98.4194 4.46139C98.1651 4.46139 97.9579 4.26163 97.9485 3.99528C97.9485 3.73844 98.1463 3.52917 98.41 3.51965C98.41 3.52917 98.4194 3.52917 98.4194 3.52917Z"></path>
	<path d="M95.5561 4.69923C95.941 4.69923 96.2531 4.38407 96.2531 3.9953C96.2531 3.60654 95.941 3.29138 95.5561 3.29138C95.1712 3.29138 94.8591 3.60654 94.8591 3.9953C94.8591 4.38407 95.1712 4.69923 95.5561 4.69923Z"></path>
</svg>